<?xml version="1.0" encoding="UTF-8" standalone="no"?>
<!DOCTYPE svg PUBLIC "-//W3C//DTD SVG 1.1//EN" "http://www.w3.org/Graphics/SVG/1.1/DTD/svg11.dtd">
<svg width="100%" height="100%" viewBox="0 0 1807 870" version="1.1" xmlns="http://www.w3.org/2000/svg" xmlns:xlink="http://www.w3.org/1999/xlink" xml:space="preserve" xmlns:serif="http://www.serif.com/" style="fill-rule:evenodd;clip-rule:evenodd;stroke-linecap:round;stroke-linejoin:round;stroke-miterlimit:1.5;">
    <g transform="matrix(0.941146,0,0,0.732323,-1.13687e-13,-1.44118e-13)">
        <rect x="0" y="0" width="1920" height="1188" style="fill:rgb(25,6,73);"/>
        <path d="M1920,0L0,0L0,1188L1920,1188L1920,0ZM1913.83,7.936L1913.83,1180.06C1913.83,1180.06 6.175,1180.06 6.175,1180.06C6.175,1180.06 6.175,110.849 6.175,7.936C120.969,7.936 1799.03,7.936 1913.83,7.936L1913.83,7.936Z" style="fill:url(#_Linear1);"/>
    </g>
    <g id="About-Me" serif:id="About Me" transform="matrix(1,0,0,1,-59,-318)">
        <g transform="matrix(3.13418,0,0,1.79592,-243.625,-427.061)">
            <rect x="109" y="524" width="395" height="147" style="fill:rgb(25,6,73);"/>
            <path d="M505.159,524C505.159,522.883 504.64,521.977 504,521.977L109,521.977C108.36,521.977 107.841,522.883 107.841,524L107.841,671C107.841,672.117 108.36,673.023 109,673.023L504,673.023C504.64,673.023 505.159,672.117 505.159,671L505.159,524ZM504,524L109,524L109,671L504,671L504,524Z" style="fill:url(#_Linear4);"/>
        </g>
        <g transform="matrix(1,0,0,1,-11.9393,15)">
            <g transform="matrix(1,0,0,1.01,0,-6.31973)">
                <text x="218.829px" y="631.973px" style="font-family:'CascadiaCode-Roman', 'Cascadia Code', monospace;font-size:30px;fill:white;">Name: &quot;Daniel&quot;</text>
            </g>
            <g transform="matrix(1,0,0,1.01,0,-6.76973)">
                <text x="218.829px" y="676.973px" style="font-family:'CascadiaCode-Roman', 'Cascadia Code', monospace;font-size:30px;fill:white;">Age: 26</text>
            </g>
            <g transform="matrix(1,0,0,1.01,0,-7.21973)">
                <text x="218.829px" y="721.973px" style="font-family:'CascadiaCode-Roman', 'Cascadia Code', monospace;font-size:30px;fill:white;">Working on: &quot;Bachelor of Science in Computer Science&quot;</text>
            </g>
        </g>
        <g transform="matrix(0.692398,0,0,0.692398,-25.5626,116.865)">
            <g transform="matrix(0.714275,0,0,1,183.27,494.889)">
                <path d="M100.064,146.772C98.552,144.975 96.148,143.643 93.321,143.047C90.321,142.415 87.091,142.663 84.348,143.736C70.979,148.966 64.809,158.221 62.778,167.697C60.164,179.901 64.631,192.125 64.631,192.125C65.999,195.859 70.756,198.445 76.159,198.393L160.159,197.584C165.766,197.53 170.538,194.653 171.556,190.715C171.556,190.715 174.875,177.817 170.721,165.431C167.506,155.846 160.007,146.758 145.343,142.314C139.54,140.555 132.828,142.38 130.131,146.45C129.608,147.239 128.15,147.651 126.801,148.186C123.157,149.628 118.746,150.606 115.999,150.606C113.196,150.606 107.996,149.696 103.688,148.306C102.377,147.883 100.453,146.961 100.064,146.772ZM140.753,150.041C167.987,158.294 160,189.191 160,189.191L76,190C76,190 65.287,160.764 89.994,151.098C93.632,155.905 109.511,159 115.999,159C122.955,159 137.175,155.441 140.753,150.041Z" style="fill:white;"/>
            </g>
            <g transform="matrix(1,0,0,1,153,483)">
                <path d="M113,115C124.038,115 133,123.962 133,135C133,146.038 124.038,155 113,155C101.962,155 93,146.038 93,135C93,123.962 101.962,115 113,115ZM113,123.394C119.406,123.394 124.606,128.594 124.606,135C124.606,141.406 119.406,146.606 113,146.606C106.594,146.606 101.394,141.406 101.394,135C101.394,128.594 106.594,123.394 113,123.394Z" style="fill:white;"/>
            </g>
        </g>
        <g transform="matrix(1,0,0,1,-6,-3.80463)">
            <text x="213px" y="594px" style="font-family:'ArialMT', 'Arial', sans-serif;font-size:75.551px;fill:white;">About Me</text>
        </g>
    </g>
    <g id="Rick" transform="matrix(1,0,0,1,8,-351)">
        <g>
            <path d="M1328,1188L1345,1100L1369.96,1019L1451,993L1544,979L1628.03,974L1681,1075L1698,1124L1713,1188L1328,1188Z" style="fill:white;stroke:rgb(31,31,31);stroke-width:4.5px;"/>
            <path d="M1451,993L1544,979C1544,979 1543.87,1047.41 1541.75,1081.53C1539.58,1116.36 1531,1188 1531,1188L1423,1188C1423,1188 1440.01,1112.34 1444.67,1079.84C1448.8,1051.11 1451,993 1451,993Z" style="fill:rgb(152,241,221);stroke:rgb(31,31,31);stroke-width:4.5px;"/>
            <path d="M1367,1089L1355.81,1188" style="fill:none;stroke:rgb(31,31,31);stroke-width:4.5px;"/>
            <path d="M1444,1008L1384,1111L1415,1164" style="fill:none;stroke:rgb(31,31,31);stroke-width:4.5px;"/>
            <path d="M1557,1012L1610,1128L1577,1188" style="fill:none;stroke:rgb(31,31,31);stroke-width:4.5px;"/>
            <path d="M1624.03,1079L1636.91,1136.05L1641,1188" style="fill:none;stroke:rgb(31,31,31);stroke-width:4.5px;"/>
        </g>
        <path id="Hals" d="M1459.41,993L1456,946L1538,934L1537,986C1519.41,1001.88 1464.03,1013.76 1459.41,993Z" style="fill:rgb(235,215,206);stroke:rgb(31,31,31);stroke-width:4.5px;"/>
        <g id="Kopf">
            <path d="M1385.48,886.628C1378.87,886.145 1370.16,885.973 1365.62,885.75C1363.16,885.628 1360.5,885.578 1358.23,885.286C1356.13,885.016 1352,884 1352,884C1352,884 1359.08,874.551 1361.02,870.899C1362.46,868.195 1363.06,864.255 1363.64,862.091C1364.01,860.719 1364.44,859.337 1364.5,857.918C1364.56,856.403 1364.65,854.183 1364,853C1363.36,851.823 1361.91,851.169 1360.62,850.82C1358.87,850.35 1355.9,850.163 1353.53,850.181C1349.43,850.211 1336,851 1336,851C1336,851 1345.99,835.993 1348.49,831.635C1349.7,829.543 1350.5,827.209 1351.03,824.854C1351.71,821.791 1352.43,816.567 1352.6,813.259C1352.73,810.502 1352.7,807.67 1352,805C1351.28,802.254 1350.05,799.215 1348.28,796.781C1346.46,794.272 1343.85,791.74 1341.07,789.945C1337.94,787.928 1333.53,786.029 1329.52,784.68C1322.34,782.267 1298,775.467 1298,775.467C1298,775.467 1314.3,764.73 1319.73,761C1323.44,758.461 1327.3,756.092 1330.64,753.089C1334.16,749.914 1338.45,745.39 1340.9,741.951C1342.93,739.105 1344.57,735.862 1345.36,732.456C1346.21,728.798 1346.18,723.512 1346,720C1345.85,717.077 1345.28,714.145 1344.3,711.387C1343.25,708.445 1341.84,704.982 1339.73,702.345C1336.07,697.773 1329.07,689.039 1322.34,683.952C1313.89,677.561 1289,664 1289,664C1289,664 1310.41,656.649 1320.42,651.459C1331.11,645.917 1347.1,634.708 1353.14,630.747C1354.44,629.894 1355.85,629.012 1356.67,627.692C1357.59,626.229 1358.35,623.676 1358.62,621.97C1358.85,620.481 1358.91,618.824 1358.27,617.46C1357.23,615.253 1354.49,611.534 1352.38,608.726C1346.56,600.98 1332.22,584.149 1323.35,570.986C1313.96,557.031 1296,525 1296,525C1296,525 1344.53,536.488 1357.62,539.412C1363.21,540.662 1369.69,541.965 1374.54,542.541C1378.57,543.02 1383.59,542.952 1386.7,542.868C1388.88,542.809 1391.06,542.496 1393.2,542.036C1395.41,541.558 1399.9,542.365 1400,540C1400.12,537.197 1395.31,530.361 1393.91,525.221C1392.48,519.997 1391.81,514.228 1391.43,508.66C1390.85,500.046 1390.36,484.802 1390.41,473.54C1390.45,462.713 1390.96,451.51 1391.72,441.087C1392.46,431.026 1395,411 1395,411C1395,411 1427.94,448.613 1438.67,459.885C1445.1,466.632 1452.5,472.381 1459.41,478.63C1466.47,485.018 1476.89,494.427 1481.07,498.212C1482.21,499.249 1483.46,500.568 1484.48,501.34C1485.3,501.961 1486.22,502.459 1487.17,502.847C1488.25,503.29 1489.87,504.212 1491,504C1492.13,503.788 1493.14,502.494 1493.94,501.573C1494.73,500.664 1495.09,499.45 1495.8,498.476C1500.7,491.708 1514.38,471.905 1523.38,460.968C1531.54,451.041 1540.48,441.735 1549.77,432.854C1563.54,419.693 1606,382 1606,382C1606,382 1600.17,436.265 1598.74,454.605C1597.76,467.053 1597.49,480.767 1597.38,492.04C1597.28,502.111 1597.6,515.813 1598.09,522.245C1598.31,525.128 1599.15,528.342 1600.3,530.634C1601.37,532.759 1603,534.722 1605,536C1607.3,537.469 1610.87,539.358 1614.12,539.449C1620.31,539.621 1632.87,538.392 1642.14,537.033C1655.53,535.072 1679.81,530.183 1694.45,527.678C1706.28,525.654 1730,522 1730,522C1730,522 1708.95,556.949 1699.75,573.234C1691.1,588.543 1679.92,609.938 1674.78,619.709C1672.69,623.687 1670.24,628.887 1668.94,631.858C1668.14,633.693 1666.96,636.013 1666.97,637.536C1666.98,638.874 1668.08,640.03 1669,641C1671.15,643.263 1676.13,647.863 1679.86,651.113C1684.74,655.365 1691.54,662.181 1698.27,666.509C1706.13,671.567 1717.31,676.746 1727.03,681.462C1736.82,686.211 1757,695 1757,695C1757,695 1737.78,705.342 1727.87,709.885C1715.27,715.661 1689.91,725.786 1681.39,729.655C1679.64,730.452 1677.83,731.817 1676.76,733.102C1675.77,734.286 1675.24,735.847 1674.97,737.364C1674.67,739.014 1674.46,741.202 1675,743C1675.57,744.876 1676.89,747.01 1678.37,748.618C1681.12,751.618 1686.72,757.388 1691.55,761C1702.32,769.064 1743,797 1743,797C1743,797 1691.91,815.882 1680.1,820.477C1677.33,821.557 1673.85,822.843 1672.16,824.57C1670.62,826.154 1670.13,828.635 1670,830.842C1669.86,833.096 1670.38,835.83 1671.35,838.089C1674.35,845.116 1688,873 1688,873C1688,873 1639.03,867.918 1628.03,867.418C1625.84,867.318 1623.18,868.529 1622,870C1620.82,871.471 1620.33,874.23 1620.96,876.242C1622.8,882.075 1633,905 1633,905C1633,905 1619.66,905.486 1609.68,904.843C1600.99,904.283 1594.05,903.625 1587.27,903.122C1546.02,900.06 1422.75,889.357 1385.48,886.628Z" style="fill:rgb(181,237,252);stroke:rgb(31,31,31);stroke-width:4.5px;"/>
            <g>
                <path d="M1656,848C1662,852.901 1668,855.714 1674,857" style="fill:none;stroke:rgb(127,164,180);stroke-width:3.63px;stroke-miterlimit:2;"/>
                <path d="M1669,780L1713,789C1696.82,792.382 1679.99,794.138 1662,793" style="fill:none;stroke:rgb(127,164,180);stroke-width:3.63px;stroke-miterlimit:2;"/>
                <path d="M1662,756.875C1678.55,771.303 1695.55,780.419 1713,784" style="fill:none;stroke:rgb(127,164,180);stroke-width:3.63px;stroke-miterlimit:2;"/>
                <path d="M1669,704C1694.74,702.376 1707.15,698.932 1713,694.596" style="fill:none;stroke:rgb(127,164,180);stroke-width:3.63px;stroke-miterlimit:2;"/>
                <path d="M1662,689C1679.86,695.83 1707.81,696.921 1732,692" style="fill:none;stroke:rgb(127,164,180);stroke-width:3.63px;stroke-miterlimit:2;"/>
                <path d="M1669,679C1679.34,683.39 1693.63,685.802 1713,685.673" style="fill:none;stroke:rgb(127,164,180);stroke-width:3.63px;stroke-miterlimit:2;"/>
                <path d="M1662,652C1671.16,660.963 1691.05,677.326 1721,689" style="fill:none;stroke:rgb(127,164,180);stroke-width:3.63px;stroke-miterlimit:2;"/>
                <path d="M1669,558L1633,577" style="fill:none;stroke:rgb(127,164,180);stroke-width:3.63px;stroke-miterlimit:2;"/>
                <path d="M1677,568C1667.67,580.534 1658.33,590.794 1649,597" style="fill:none;stroke:rgb(127,164,180);stroke-width:3.63px;stroke-miterlimit:2;"/>
                <path d="M1696,539C1661.2,545.244 1633.62,554.525 1616,568" style="fill:none;stroke:rgb(127,164,180);stroke-width:3.63px;stroke-miterlimit:2;"/>
                <path d="M1589,428C1578.86,452.528 1570.45,478.781 1569,512" style="fill:none;stroke:rgb(127,164,180);stroke-width:3.63px;stroke-miterlimit:2;"/>
                <path d="M1585,411C1569.3,439.174 1556.02,467.669 1549,497" style="fill:none;stroke:rgb(127,164,180);stroke-width:3.63px;stroke-miterlimit:2;"/>
                <path d="M1575,418C1552.78,453.935 1539.97,480.734 1538,497" style="fill:none;stroke:rgb(127,164,180);stroke-width:3.63px;stroke-miterlimit:2;"/>
                <path d="M1559,434C1538.97,457 1523.46,480 1515,503" style="fill:none;stroke:rgb(127,164,180);stroke-width:3.63px;stroke-miterlimit:2;"/>
                <path d="M1420,470C1426.71,487.786 1436.08,501.735 1448,512" style="fill:none;stroke:rgb(127,164,180);stroke-width:3.63px;stroke-miterlimit:2;"/>
                <path d="M1407,456C1411.35,481.542 1418.71,503.557 1430,521" style="fill:none;stroke:rgb(127,164,180);stroke-width:3.63px;stroke-miterlimit:2;"/>
                <path d="M1396,447C1397.66,487.671 1403.92,517.626 1416,534" style="fill:none;stroke:rgb(127,164,180);stroke-width:3.63px;stroke-miterlimit:2;"/>
                <path d="M1316,539C1337.44,552.75 1358.04,562.026 1378,568" style="fill:none;stroke:rgb(127,164,180);stroke-width:3.63px;stroke-miterlimit:2;"/>
                <path d="M1317,548C1326.89,557.974 1345.25,570.063 1367,583" style="fill:none;stroke:rgb(127,164,180);stroke-width:3.63px;stroke-miterlimit:2;"/>
                <path d="M1351,652C1343.99,655.744 1336.43,658.048 1328,658" style="fill:none;stroke:rgb(127,164,180);stroke-width:3.63px;stroke-miterlimit:2;"/>
                <path d="M1332,569C1341.9,582.276 1357.06,593.059 1374,603" style="fill:none;stroke:rgb(127,164,180);stroke-width:3.63px;stroke-miterlimit:2;"/>
                <path d="M1311,665C1317.97,667.514 1330.55,667.226 1347,665" style="fill:none;stroke:rgb(127,164,180);stroke-width:3.63px;stroke-miterlimit:2;"/>
                <path d="M1335,759C1339.95,757.194 1345.31,756.585 1351,757" style="fill:none;stroke:rgb(127,164,180);stroke-width:3.63px;stroke-miterlimit:2;"/>
                <path d="M1324,767C1331.59,767.001 1338.26,768.667 1344,772" style="fill:none;stroke:rgb(127,164,180);stroke-width:3.63px;stroke-miterlimit:2;"/>
            </g>
            <g id="Ohr-echts" serif:id="Ohr echts">
                <path d="M1617.89,844.357L1625.2,784.68L1644.51,793.938L1651.16,806.023L1652.04,818.514L1647.67,831L1639.23,837.951L1617.89,844.357Z" style="fill:rgb(235,215,206);"/>
                <path d="M1625.2,784.68C1628.47,785.78 1631.98,786.34 1635.02,787.98C1638.27,789.736 1642.09,792.386 1644.72,795.217C1647.32,798.022 1649.48,801.544 1650.78,804.966C1652.06,808.371 1652.9,812.139 1652.47,815.753C1651.96,820.092 1650.19,827.125 1647.67,831C1645.3,834.648 1640.89,837.029 1637.36,839C1634,840.874 1629.98,841.89 1626.47,842.827C1623.14,843.715 1619.68,844.022 1616.29,844.62" style="fill:none;stroke:rgb(31,31,31);stroke-width:4.5px;"/>
            </g>
            <g id="Ohr-links" serif:id="Ohr links">
                <path d="M1370.85,777.467C1367.68,778.584 1367.27,775.572 1364.5,777.352C1361.74,779.132 1358.64,781.514 1357.39,784.68C1355.98,788.278 1355.51,794.31 1356.01,798.938C1356.5,803.567 1358.43,808.932 1360.39,812.452C1362.1,815.535 1365.12,817.703 1367.75,820.056C1370.37,822.409 1371.21,819.399 1374,821.57L1371.15,796.78L1370.85,777.467Z" style="fill:rgb(235,215,206);"/>
                <path d="M1371.85,774.467C1368.68,775.584 1367.27,775.572 1364.5,777.352C1361.74,779.132 1358.64,781.514 1357.39,784.68C1355.98,788.278 1355.51,794.31 1356.01,798.938C1356.5,803.567 1358.43,808.932 1360.39,812.452C1362.1,815.535 1365.12,817.703 1367.75,820.056C1370.37,822.409 1373.33,824.399 1376.12,826.57" style="fill:none;stroke:rgb(31,31,31);stroke-width:4.5px;"/>
            </g>
            <path id="Face" d="M1497.99,544.709C1489.81,544.931 1478.65,546.657 1471.28,548.073C1465.31,549.22 1459.15,551.207 1453.78,553.204C1448.69,555.091 1443.64,557.215 1439.03,560.054C1433.85,563.24 1427.68,567.681 1422.69,572.318C1416.61,577.976 1408.27,585.973 1402.53,594C1396.33,602.658 1390.15,619.77 1386.53,627.267C1385.72,628.944 1376.88,631.118 1376.12,634.666C1375.72,636.542 1383.24,639.671 1383.24,639.671C1382.26,645.964 1379.34,660.388 1379.34,660.388L1369.33,670.206L1362.74,681.942C1362.74,681.942 1361.28,686.615 1360.54,689.74C1359.81,692.768 1359.62,696 1359.62,696L1361.04,713.871L1371.47,730.792C1371.16,741.62 1371.76,765.033 1371.84,774C1371.97,787.77 1374.44,803.442 1375.34,816.45C1376.18,828.743 1377.39,841.025 1379.21,853.212C1381.03,865.414 1383.93,881.293 1386.27,889.665C1387.65,894.622 1390.44,899.122 1393.24,903.446C1396.67,908.761 1401.6,916.131 1406.86,921.553C1412.65,927.527 1420.25,934.328 1428,939.291C1436.38,944.659 1448.43,950.807 1457.12,953.758C1464.46,956.251 1472.4,956.916 1480.16,956.996C1488.75,957.085 1500.83,955.714 1508.64,954.291C1514.96,953.14 1521.04,950.813 1527.02,948.462C1533.08,946.08 1539.29,943.368 1545,940C1552.11,935.801 1562.25,929.855 1569.7,923.269C1577.45,916.417 1585.51,907.998 1591.5,898.89C1598.22,888.679 1605.32,873.348 1610,862C1614.15,851.942 1617.74,841.523 1619.61,830.803C1622.38,814.917 1625.21,787.813 1626.61,766.679C1627.99,745.826 1628.1,721.113 1628,704C1627.92,690.65 1626.74,673.625 1626,664C1625.54,658.046 1624.87,652.078 1623.55,646.252C1622.16,640.068 1620.35,633.073 1617.64,626.895C1614.92,620.686 1611,614.766 1607.21,608.998C1603.29,603.049 1599.11,596.64 1594.16,591.204C1588.23,584.7 1579.96,576.071 1571.63,569.974C1562.94,563.607 1550.54,556.872 1542,553C1535.17,549.902 1527.72,548.121 1520.38,546.739C1513.05,545.357 1505.48,544.505 1497.99,544.709Z" style="fill:rgb(235,215,206);stroke:rgb(31,31,31);stroke-width:4.5px;"/>
            <g id="Aufe-rechts" serif:id="Aufe rechts">
                <path d="M1475,696L1522,694.518L1582.6,698.637L1585,705.778L1583.53,716.738L1576.62,737.327L1567.55,746.703L1551.86,753.667L1511.71,756.135L1489.81,744L1476.48,721.85L1475,696Z" style="fill:white;"/>
                <path d="M1473.68,696C1480.4,695.582 1487.07,695.262 1493.8,695.051C1503.08,694.759 1518.19,694.395 1529.37,694.555C1539.87,694.705 1551.7,695.297 1560.83,696.01C1568.64,696.619 1576.39,697.89 1584.16,698.83" style="fill:none;stroke:rgb(31,31,31);stroke-width:4.5px;"/>
                <path d="M1494,662C1489.92,667.44 1485.06,673.05 1481.75,678.32C1478.72,683.144 1475.43,688.423 1474.14,693.622C1472.86,698.763 1473.52,704.568 1474,709.512C1474.45,714.191 1475.3,718.908 1477,723.29C1478.85,728.04 1481.96,733.674 1485.07,738.017C1488.08,742.222 1491.53,746.399 1495.67,749.349C1499.81,752.299 1504.87,754.44 1509.91,755.717C1515.28,757.076 1521.85,757.666 1527.86,757.505C1534.23,757.335 1541.87,756.254 1548.11,754.693C1554.06,753.205 1560.66,750.879 1565.31,748.142C1569.49,745.68 1573.34,742.229 1576.02,738.27C1578.69,734.312 1579.99,729.152 1581.38,724.391C1582.88,719.265 1584.83,713.013 1585,707.517C1585.16,702.081 1583.71,696.377 1582.38,691.415C1581.11,686.686 1579.57,681.918 1577.02,677.741C1574.12,673.005 1569.01,667.914 1565,663" style="fill:none;stroke:rgb(31,31,31);stroke-width:4.5px;"/>
                <g transform="matrix(1.08333,0,0,1.2,-124.25,-139.2)">
                    <ellipse cx="1497" cy="701" rx="6" ry="5" style="fill:rgb(31,31,31);"/>
                </g>
                <path d="M1522,780C1527,780.92 1531.93,782.557 1537.01,782.76C1543.26,783.01 1553.07,782.795 1559.5,781.5C1565.18,780.358 1571.36,778.076 1575.61,774.993C1579.72,772.011 1581.87,766.998 1585,763" style="fill:none;stroke:rgb(31,31,31);stroke-width:4.5px;"/>
            </g>
            <g id="Auge-links" serif:id="Auge links">
                <g transform="matrix(1,0,0,1,-119.187,-11.7558)">
                    <path d="M1479.03,706.767L1519,704.518L1578.59,706.271L1576.8,723.309L1573.11,734.706L1570.53,740.825L1565.43,747.767L1551.86,753.667L1512.11,754.009L1490.66,742.547L1479.4,721.816L1479.03,706.767Z" style="fill:white;"/>
                </g>
                <path d="M1394,653C1390.09,654.815 1385.92,656.149 1382.28,658.445C1378.59,660.764 1374.81,663.519 1371.91,666.912C1368.73,670.629 1365.24,675.979 1363.23,680.745C1361.26,685.395 1360.13,690.464 1359.81,695.504C1359.46,701.066 1359.42,708.497 1361.11,714.116C1362.79,719.703 1366.4,725.219 1369.96,729.218C1373.36,733.04 1377.85,735.914 1382.47,738.11C1387.65,740.574 1394.6,743.323 1401.07,744C1408.74,744.804 1420.99,744.274 1428.53,742.933C1434.8,741.819 1440.34,742.215 1446.31,735.957C1451.78,730.218 1452.89,725.768 1454.96,720.121C1457.12,714.217 1459.03,707.215 1459.29,700.533C1459.58,693.347 1459.55,684.089 1456.66,677C1453.78,669.912 1446.89,664.333 1442,658" style="fill:none;stroke:rgb(31,31,31);stroke-width:4.5px;"/>
                <path d="M1359.62,696C1365.47,695.565 1371.31,694.968 1377.16,694.695C1384.61,694.347 1395.23,693.934 1404.28,693.914C1417.98,693.885 1441.03,694.315 1459.41,694.516" style="fill:none;stroke:rgb(31,31,31);stroke-width:4.5px;"/>
                <g transform="matrix(1.08333,0,0,1.2,-245.29,-139.2)">
                    <ellipse cx="1497" cy="701" rx="6" ry="5" style="fill:rgb(31,31,31);"/>
                </g>
                <path d="M1428,767C1426.48,767.795 1425.1,768.97 1423.44,769.384C1421.43,769.883 1418.46,769.917 1415.96,769.996C1412.9,770.091 1408.68,770.303 1405.06,769.958C1401.07,769.578 1395.83,768.543 1391.99,767.714C1388.61,766.986 1384.99,766.103 1381.99,764.984C1379.2,763.943 1376.66,762.328 1374,761" style="fill:none;stroke:rgb(31,31,31);stroke-width:4.5px;"/>
            </g>
            <path id="Nase" d="M1448,744C1446.56,747.545 1444.83,750.983 1443.69,754.636C1442.52,758.403 1441.72,762.582 1440.96,766.603C1440.21,770.635 1439.55,774.997 1439.17,778.824C1438.81,782.389 1438.66,786.313 1438.67,789.56C1438.69,792.482 1438.8,795.859 1439.27,798.307C1439.67,800.386 1440.31,802.554 1441.52,804.249C1442.73,805.945 1444.49,808.28 1446.54,808.481C1448.58,808.682 1451.7,807.036 1453.78,805.455C1456.51,803.39 1460.31,799.603 1462.88,796.09C1465.78,792.125 1468.82,786.681 1471.17,781.666C1473.52,776.651 1475.06,771.222 1477,766" style="fill:none;stroke:rgb(31,31,31);stroke-width:4.5px;"/>
            <g id="Mund">
                <path id="Mund-Rechts" serif:id="Mund Rechts" d="M1548.81,845.188C1551.95,848.684 1555.97,852.373 1558.22,855.675C1560.13,858.481 1561.79,862.457 1562.32,865C1562.72,866.963 1562.58,869.348 1561.35,870.936C1559.78,872.985 1556.24,876.297 1552.84,877.292C1547.12,878.969 1535.62,879.764 1527,881" style="fill:none;stroke:rgb(31,31,31);stroke-width:4.5px;"/>
                <g id="Mund-Links" serif:id="Mund Links">
                    <path id="Mund-Left" serif:id="Mund Left" d="M1390,872C1393.57,874.346 1394.85,827.802 1390,831C1385.15,834.198 1378.58,838.11 1375.45,840.593C1373.68,841.997 1372.14,843.979 1371.23,845.894C1370.33,847.793 1369.81,850.097 1370,852.079C1370.19,854.061 1371.18,856.114 1372.39,857.787C1373.94,859.934 1376.71,862.879 1379.29,864.963C1382.22,867.332 1386.43,869.654 1390,872Z" style="fill:rgb(235,215,206);"/>
                    <path id="Mund-Left1" serif:id="Mund Left" d="M1390,831C1385.15,834.198 1378.58,838.11 1375.45,840.593C1373.68,841.997 1372.14,843.979 1371.23,845.894C1370.33,847.793 1369.81,850.097 1370,852.079C1370.19,854.061 1371.18,856.114 1372.39,857.787C1373.94,859.934 1376.71,862.879 1379.29,864.963C1382.22,867.332 1386.43,869.654 1390,872" style="fill:none;stroke:rgb(31,31,31);stroke-width:4.5px;"/>
                </g>
                <path id="Mund-Mid" serif:id="Mund Mid" d="M1386,852C1391.37,851.057 1396.67,849.289 1402.12,849.17C1414.08,848.909 1440.27,849.172 1457.78,850.436C1474.33,851.63 1493.13,854.323 1507.16,856.751C1518.92,858.784 1530.39,862.25 1542,865" style="fill:none;stroke:rgb(31,31,31);stroke-width:4.5px;"/>
            </g>
            <path id="Braue" d="M1377,635C1377.82,629.832 1387.27,629.009 1392.94,627.524C1399.33,625.855 1407.81,625.031 1415.31,624.984C1432.04,624.881 1470.75,625.377 1492.31,625.901C1509.43,626.318 1532.02,627.041 1544.68,628.129C1553.03,628.848 1564.36,631.456 1569.25,633.434C1571.75,634.448 1574.25,636.086 1574,640C1573.75,643.939 1569.31,644.628 1566.29,644.779C1554.61,645.36 1524.72,643.705 1503.93,643.489C1480.48,643.246 1442.92,643.644 1425.57,643.318C1416.98,643.157 1388.8,641.23 1384.99,640.14C1381.67,639.192 1376.47,638.342 1377,635Z" style="fill:rgb(184,236,249);stroke:rgb(31,31,31);stroke-width:4.5px;"/>
        </g>
    </g>
    <defs>
        <linearGradient id="_Linear1" x1="0" y1="0" x2="1" y2="0" gradientUnits="userSpaceOnUse" gradientTransform="matrix(1920,0,0,1188,0,594)"><stop offset="0" style="stop-color:rgb(181,11,181);stop-opacity:1"/><stop offset="1" style="stop-color:rgb(81,43,212);stop-opacity:1"/></linearGradient>
        <linearGradient id="_Linear2" x1="0" y1="0" x2="1" y2="0" gradientUnits="userSpaceOnUse" gradientTransform="matrix(395,0,0,147,109,597.5)"><stop offset="0" style="stop-color:rgb(181,11,181);stop-opacity:1"/><stop offset="1" style="stop-color:rgb(81,43,212);stop-opacity:1"/></linearGradient>
        <linearGradient id="_Linear3" x1="0" y1="0" x2="1" y2="0" gradientUnits="userSpaceOnUse" gradientTransform="matrix(395,0,0,147,109,597.5)"><stop offset="0" style="stop-color:rgb(181,11,181);stop-opacity:1"/><stop offset="1" style="stop-color:rgb(81,43,212);stop-opacity:1"/></linearGradient>
        <linearGradient id="_Linear4" x1="0" y1="0" x2="1" y2="0" gradientUnits="userSpaceOnUse" gradientTransform="matrix(395,0,0,147,109,597.5)"><stop offset="0" style="stop-color:rgb(181,11,181);stop-opacity:1"/><stop offset="1" style="stop-color:rgb(81,43,212);stop-opacity:1"/></linearGradient>
    </defs>
</svg>
