<?xml version="1.0" encoding="UTF-8" standalone="no"?><!DOCTYPE svg PUBLIC "-//W3C//DTD SVG 1.1//EN" "http://www.w3.org/Graphics/SVG/1.1/DTD/svg11.dtd"><svg width="100%" height="100%" viewBox="0 0 1280 400" version="1.1" xmlns="http://www.w3.org/2000/svg" xmlns:xlink="http://www.w3.org/1999/xlink" xml:space="preserve" xmlns:serif="http://www.serif.com/" style="fill-rule:evenodd;clip-rule:evenodd;stroke-linecap:round;stroke-linejoin:round;stroke-miterlimit:1.5;"><g id="Layer1"><g><g><path d="M123.107,16.455l-40,69.282l-80,0l-40,-69.282l40,-69.282l80,0l40,69.282Z" style="fill:none;stroke:url(#_Linear1);stroke-width:1px;"/><path d="M123.107,155.019l-40,69.282l-80,0l-40,-69.282l40,-69.282l80,0l40,69.282Z" style="fill:none;stroke:url(#_Linear2);stroke-width:1px;"/><path d="M123.107,293.583l-40,69.282l-80,0l-40,-69.282l40,-69.282l80,0l40,69.282Z" style="fill:none;stroke:url(#_Linear3);stroke-width:1px;"/><path d="M123.107,432.148l-40,69.282l-80,-0l-40,-69.282l40,-69.283l80,0l40,69.283Z" style="fill:none;stroke:url(#_Linear4);stroke-width:1px;"/></g><g><path d="M243.107,86.455l-40,69.282l-80,0l-40,-69.282l40,-69.282l80,0l40,69.282Z" style="fill:none;stroke:url(#_Linear5);stroke-width:1px;"/><path d="M243.107,225.019l-40,69.282l-80,0l-40,-69.282l40,-69.282l80,0l40,69.282Z" style="fill:none;stroke:url(#_Linear6);stroke-width:1px;"/><path d="M243.107,363.583l-40,69.282l-80,0l-40,-69.282l40,-69.282l80,0l40,69.282Z" style="fill:none;stroke:url(#_Linear7);stroke-width:1px;"/></g><g><path d="M363.107,16.455l-40,69.282l-80,0l-40,-69.282l40,-69.282l80,0l40,69.282Z" style="fill:none;stroke:url(#_Linear8);stroke-width:1px;"/><path d="M363.107,155.019l-40,69.282l-80,0l-40,-69.282l40,-69.282l80,0l40,69.282Z" style="fill:none;stroke:url(#_Linear9);stroke-width:1px;"/><path d="M363.107,293.583l-40,69.282l-80,0l-40,-69.282l40,-69.282l80,0l40,69.282Z" style="fill:none;stroke:url(#_Linear10);stroke-width:1px;"/><path d="M363.107,432.148l-40,69.282l-80,-0l-40,-69.282l40,-69.283l80,0l40,69.283Z" style="fill:none;stroke:url(#_Linear11);stroke-width:1px;"/></g><g><path d="M483.107,86.455l-40,69.282l-80,0l-40,-69.282l40,-69.282l80,0l40,69.282Z" style="fill:none;stroke:url(#_Linear12);stroke-width:1px;"/><path d="M483.107,225.019l-40,69.282l-80,0l-40,-69.282l40,-69.282l80,0l40,69.282Z" style="fill:none;stroke:url(#_Linear13);stroke-width:1px;"/><path d="M483.107,363.583l-40,69.282l-80,0l-40,-69.282l40,-69.282l80,0l40,69.282Z" style="fill:none;stroke:url(#_Linear14);stroke-width:1px;"/></g><g><path d="M603.107,17.516l-40,69.282l-80,-0l-40,-69.282l40,-69.282l80,-0l40,69.282Z" style="fill:none;stroke:url(#_Linear15);stroke-width:1px;"/><path d="M603.107,156.08l-40,69.282l-80,-0l-40,-69.282l40,-69.282l80,-0l40,69.282Z" style="fill:none;stroke:url(#_Linear16);stroke-width:1px;"/><path d="M603.107,294.644l-40,69.282l-80,-0l-40,-69.282l40,-69.282l80,-0l40,69.282Z" style="fill:none;stroke:url(#_Linear17);stroke-width:1px;"/><path d="M603.107,433.208l-40,69.282l-80,-0l-40,-69.282l40,-69.282l80,-0l40,69.282Z" style="fill:none;stroke:url(#_Linear18);stroke-width:1px;"/></g><g><path d="M723.107,86.455l-40,69.282l-80,0l-40,-69.282l40,-69.282l80,0l40,69.282Z" style="fill:none;stroke:url(#_Linear19);stroke-width:1px;"/><path d="M723.107,225.019l-40,69.282l-80,0l-40,-69.282l40,-69.282l80,0l40,69.282Z" style="fill:none;stroke:url(#_Linear20);stroke-width:1px;"/><path d="M723.107,363.583l-40,69.282l-80,0l-40,-69.282l40,-69.282l80,0l40,69.282Z" style="fill:none;stroke:url(#_Linear21);stroke-width:1px;"/></g><g><path d="M843.107,16.455l-40,69.282l-80,0l-40,-69.282l40,-69.282l80,0l40,69.282Z" style="fill:none;stroke:url(#_Linear22);stroke-width:1px;"/><path d="M843.107,155.019l-40,69.282l-80,0l-40,-69.282l40,-69.282l80,0l40,69.282Z" style="fill:none;stroke:url(#_Linear23);stroke-width:1px;"/><path d="M843.107,293.583l-40,69.282l-80,0l-40,-69.282l40,-69.282l80,0l40,69.282Z" style="fill:none;stroke:url(#_Linear24);stroke-width:1px;"/><path d="M843.107,432.148l-40,69.282l-80,-0l-40,-69.282l40,-69.283l80,0l40,69.283Z" style="fill:none;stroke:url(#_Linear25);stroke-width:1px;"/></g><g><path d="M963.107,85.633l-40,69.282l-80,0l-40,-69.282l40,-69.282l80,0l40,69.282Z" style="fill:none;stroke:url(#_Linear26);stroke-width:1px;"/><path d="M963.107,224.197l-40,69.282l-80,0l-40,-69.282l40,-69.282l80,0l40,69.282Z" style="fill:none;stroke:url(#_Linear27);stroke-width:1px;"/><path d="M963.107,362.761l-40,69.282l-80,0l-40,-69.282l40,-69.282l80,0l40,69.282Z" style="fill:none;stroke:url(#_Linear28);stroke-width:1px;"/></g><g><path d="M1083.11,16.455l-40,69.282l-80,0l-40,-69.282l40,-69.282l80,0l40,69.282Z" style="fill:none;stroke:url(#_Linear29);stroke-width:1px;"/><path d="M1083.11,155.019l-40,69.282l-80,0l-40,-69.282l40,-69.282l80,0l40,69.282Z" style="fill:none;stroke:url(#_Linear30);stroke-width:1px;"/><path d="M1083.11,293.583l-40,69.282l-80,0l-40,-69.282l40,-69.282l80,0l40,69.282Z" style="fill:none;stroke:url(#_Linear31);stroke-width:1px;"/><path d="M1083.11,432.148l-40,69.282l-80,-0l-40,-69.282l40,-69.283l80,0l40,69.283Z" style="fill:none;stroke:url(#_Linear32);stroke-width:1px;"/></g><g><path d="M1203.11,86.462l-40,69.282l-80,-0l-40,-69.282l40,-69.282l80,-0l40,69.282Z" style="fill:none;stroke:url(#_Linear33);stroke-width:1px;"/><path d="M1203.11,225.026l-40,69.282l-80,-0l-40,-69.282l40,-69.282l80,-0l40,69.282Z" style="fill:none;stroke:url(#_Linear34);stroke-width:1px;"/><path d="M1203.11,363.59l-40,69.282l-80,-0l-40,-69.282l40,-69.282l80,-0l40,69.282Z" style="fill:none;stroke:url(#_Linear35);stroke-width:1px;"/></g><g><path d="M1323.11,16.455l-40,69.282l-80,0l-40,-69.282l40,-69.282l80,0l40,69.282Z" style="fill:none;stroke:url(#_Linear36);stroke-width:1px;"/><path d="M1323.11,155.019l-40,69.282l-80,0l-40,-69.282l40,-69.282l80,0l40,69.282Z" style="fill:none;stroke:url(#_Linear37);stroke-width:1px;"/><path d="M1323.11,293.583l-40,69.282l-80,0l-40,-69.282l40,-69.282l80,0l40,69.282Z" style="fill:none;stroke:url(#_Linear38);stroke-width:1px;"/><path d="M1323.11,432.148l-40,69.282l-80,-0l-40,-69.282l40,-69.283l80,0l40,69.283Z" style="fill:none;stroke:url(#_Linear39);stroke-width:1px;"/></g></g></g><g><g transform="matrix(1,0,0,0.99956,3.55271e-15,-0.000119199)"><g transform="matrix(93.0104,0,0,93.0104,983.952,129.786)"></g><text x="290.371px" y="129.786px" style="font-family:'CenturyGothic', 'Century Gothic', sans-serif;font-size:93.01px;fill:#d0d0d0;">Daniel Baumert</text></g></g><g><g><path d="M998.328,327.447c0.467,-0.839 0.757,-1.784 0.757,-2.633l0,-29.469c0,-0.849 -0.29,-1.794 -0.757,-2.633l-29.016,17.368l29.016,17.367Z" style="fill:#7f3a86;fill-rule:nonzero;"/><path d="M971.891,344.178l24.616,-14.734c0.71,-0.425 1.354,-1.158 1.821,-1.997l-29.015,-17.367l-29.015,17.367c0.467,0.839 1.111,1.572 1.82,1.997l24.617,14.734c1.417,0.849 3.738,0.849 5.156,-0Z" style="fill:#662579;fill-rule:nonzero;"/><path d="M998.328,292.712c-0.468,-0.839 -1.112,-1.572 -1.821,-1.997l-24.617,-14.734c-1.418,-0.849 -3.738,-0.849 -5.156,0l-24.616,14.734c-1.419,0.849 -2.579,2.933 -2.579,4.63l0,29.469c0,0.849 0.29,1.794 0.758,2.633l29.015,-17.367l29.016,-17.368Z" style="fill:#9a5196;fill-rule:nonzero;"/><path d="M969.408,329.928c-10.998,0 -19.945,-8.904 -19.945,-19.848c0,-10.945 8.947,-19.849 19.945,-19.849c6.965,0 13.469,3.661 17.071,9.581l-8.541,5.123c-1.805,-2.954 -5.053,-4.78 -8.53,-4.78c-5.499,0 -9.972,4.452 -9.972,9.925c-0,5.472 4.473,9.924 9.972,9.924c3.467,-0 6.707,-1.816 8.515,-4.756l8.559,5.093c-3.6,5.924 -10.107,9.587 -17.074,9.587Z" style="fill:#fff;fill-rule:nonzero;"/><path d="M991.642,302.636l0,2.475l-4.963,0l0,-2.475l-2.48,0l-0,2.475l-2.482,0l0,2.488l2.482,-0l-0,4.949l-2.482,-0l0,2.494l2.482,-0l-0,2.481l2.48,-0l0.001,-2.481l4.962,-0l0,2.481l2.481,-0l-0,-2.481l2.481,-0l-0,-2.481l-2.481,-0l-0,-4.962l2.481,-0l-0,-2.488l-2.481,0l-0,-2.475l-2.481,0Zm0,9.925l0,-4.962l-4.963,-0l0,4.949l4.963,0.013Z" style="fill:#fff;"/><clipPath id="_clip40"><rect id="vs-code-svgrepo-com.svg" x="270.991" y="270.382" width="79.395" height="79.395"/></clipPath><g clip-path="url(#_clip40)"><path d="M323.097,278.115c0,-2.18 -2.441,-2.18 -3.527,-1.908c1.52,-1.199 3.301,-0.908 3.934,-0.545l14.672,7.194c1.398,0.685 2.284,2.112 2.284,3.675l0,47.325c0,1.584 -0.91,3.026 -2.336,3.7l-13.806,6.528c-0.95,0.408 -3.011,1.417 -4.748,-0c2.171,0.409 3.346,-1.136 3.527,-2.181l0,-63.788Z" style="fill:url(#_Linear41);fill-rule:nonzero;"/><path d="M319.747,276.168c1.152,-0.228 3.351,-0.122 3.351,1.948l-0,16.29l-44.482,33.65c-0.777,0.588 -1.871,0.49 -2.533,-0.226l-4.585,-4.961c-0.718,-0.777 -0.668,-1.993 0.112,-2.708l47.961,-43.954l0.176,-0.039Z" style="fill:url(#_Linear42);fill-rule:nonzero;"/><path d="M323.098,325.886l-44.482,-33.65c-0.777,-0.588 -1.871,-0.491 -2.533,0.226l-4.585,4.96c-0.718,0.778 -0.668,1.994 0.112,2.709l47.961,43.953c2.17,0.409 3.346,-1.135 3.527,-2.181l-0,-16.017Z" style="fill:url(#_Linear43);fill-rule:nonzero;"/></g><circle cx="404.777" cy="310.08" r="39.697" style="fill:#0091e2;"/><path d="M429.223,306.164c-0.124,-0.101 -1.248,-0.946 -3.62,-0.946c-0.628,0 -1.256,0.047 -1.877,0.163c-0.457,-3.155 -3.062,-4.691 -3.179,-4.76l-0.635,-0.373l-0.419,0.605c-0.527,0.814 -0.907,1.706 -1.132,2.652c-0.426,1.799 -0.171,3.489 0.744,4.931c-1.101,0.612 -2.876,0.768 -3.233,0.775l-29.315,0c-0.768,0 -1.388,0.621 -1.388,1.388c-0.031,2.567 0.403,5.117 1.279,7.529c1.008,2.651 2.512,4.597 4.466,5.791c2.186,1.342 5.745,2.109 9.785,2.109c1.822,0.008 3.644,-0.162 5.435,-0.496c2.489,-0.457 4.885,-1.326 7.086,-2.574c1.815,-1.054 3.451,-2.388 4.839,-3.962c2.318,-2.628 3.706,-5.559 4.737,-8.157l0.411,0c2.543,0 4.109,-1.015 4.97,-1.868c0.574,-0.543 1.023,-1.202 1.31,-1.938l0.178,-0.535l-0.442,-0.334Zm-39.953,2.202l3.931,0c0.186,0 0.341,-0.155 0.341,-0.341l0,-3.497c0,-0.186 -0.155,-0.341 -0.341,-0.349l-3.931,0c-0.186,0 -0.341,0.155 -0.341,0.341l0,3.505c0,0.194 0.155,0.341 0.341,0.341m5.42,0l3.931,0c0.186,0 0.341,-0.155 0.341,-0.341l0,-3.497c0,-0.186 -0.155,-0.341 -0.341,-0.349l-3.931,0c-0.194,0 -0.349,0.155 -0.349,0.349l0,3.497c0,0.194 0.155,0.341 0.349,0.341m5.489,0.008l3.931,-0c0.186,-0 0.341,-0.155 0.341,-0.341l0,-3.497c0,-0.186 -0.155,-0.341 -0.341,-0.349l-3.931,0c-0.186,0 -0.341,0.155 -0.341,0.341l0,3.505c0,0.186 0.155,0.333 0.341,0.341m5.435,-0l3.931,-0c0.186,-0 0.342,-0.155 0.349,-0.341l0,-3.497c0,-0.194 -0.155,-0.349 -0.349,-0.349l-3.931,0c-0.186,0 -0.341,0.155 -0.341,0.341l0,3.505c0,0.186 0.148,0.341 0.341,0.341m-10.932,-5.04l3.931,0c0.186,0 0.341,-0.155 0.341,-0.349l0,-3.496c0,-0.187 -0.155,-0.342 -0.341,-0.342l-3.931,0c-0.194,0 -0.341,0.155 -0.349,0.342l0,3.496c0.008,0.194 0.163,0.349 0.349,0.349m5.497,0l3.931,0c0.186,0 0.341,-0.155 0.341,-0.349l0,-3.496c0,-0.187 -0.155,-0.342 -0.341,-0.342l-3.931,0c-0.186,0 -0.341,0.155 -0.341,0.342l0,3.496c0,0.194 0.155,0.349 0.341,0.349m5.435,0l3.931,0c0.194,0 0.342,-0.155 0.349,-0.349l0,-3.496c0,-0.194 -0.155,-0.342 -0.349,-0.342l-3.931,0c-0.186,0 -0.341,0.155 -0.341,0.342l0,3.496c0,0.194 0.148,0.349 0.341,0.349m0,-5.032l3.931,0c0.194,0 0.349,-0.155 0.349,-0.349l0,-3.504c0,-0.186 -0.155,-0.341 -0.349,-0.341l-3.931,-0c-0.186,-0 -0.341,0.155 -0.341,0.341l0,3.504c0,0.194 0.148,0.349 0.341,0.349m5.474,10.072l3.931,-0c0.186,-0 0.341,-0.155 0.341,-0.341l0,-3.497c0,-0.194 -0.155,-0.341 -0.341,-0.349l-3.931,0c-0.186,0 -0.341,0.155 -0.341,0.341l0,3.505c0,0.186 0.155,0.341 0.341,0.341" style="fill:#fff;fill-rule:nonzero;"/><path d="M913.485,289.681c0,0 -25.349,-18.653 -44.958,-14.348l-1.435,0.478c-2.87,0.956 -5.261,2.391 -6.696,4.304l-0.956,1.435l-7.175,12.436l12.436,2.391c5.261,3.348 11.957,4.783 18.174,3.348l22.001,4.304l8.609,-14.348Z" style="fill:#76b3e1;fill-rule:nonzero;"/><path d="M913.485,289.681c0,0 -25.349,-18.653 -44.958,-14.348l-1.435,0.478c-2.87,0.956 -5.261,2.391 -6.696,4.304l-0.956,1.435l-7.175,12.436l12.436,2.391c5.261,3.348 11.957,4.783 18.174,3.348l22.001,4.304l8.609,-14.348Z" style="fill:url(#_Linear44);fill-rule:nonzero;"/><path d="M860.396,289.681l-1.913,0.478c-8.131,2.392 -10.522,10.044 -6.218,16.74c4.783,6.218 14.827,9.566 22.958,7.174l29.653,-10.044c0,0 -25.349,-18.653 -44.48,-14.348Z" style="fill:#518ac8;fill-rule:nonzero;"/><path d="M860.396,289.681l-1.913,0.478c-8.131,2.392 -10.522,10.044 -6.218,16.74c4.783,6.218 14.827,9.566 22.958,7.174l29.653,-10.044c0,0 -25.349,-18.653 -44.48,-14.348Z" style="fill:url(#_Linear45);fill-rule:nonzero;"/><path d="M899.615,311.204c-5.466,-6.829 -14.575,-9.676 -22.957,-7.175l-29.654,9.566l-9.565,16.74l53.567,9.087l9.566,-17.218c1.913,-3.348 1.435,-7.174 -0.957,-11Z" style="fill:url(#_Linear46);fill-rule:nonzero;"/><path d="M890.05,327.943c-5.467,-6.829 -14.576,-9.675 -22.958,-7.174l-29.653,9.566c-0,-0 25.349,19.131 44.958,14.348l1.435,-0.478c8.131,-2.391 11,-10.044 6.218,-16.262Z" style="fill:url(#_Linear47);fill-rule:nonzero;"/><g><path d="M781.134,285.82c-10.586,0 -17.202,5.293 -19.849,15.879c3.97,-5.293 8.601,-7.278 13.894,-5.954c3.02,0.754 5.178,2.946 7.568,5.37c3.891,3.951 8.396,8.524 18.235,8.524c10.586,-0 17.203,-5.293 19.849,-15.879c-3.97,5.293 -8.601,7.278 -13.894,5.954c-3.02,-0.754 -5.178,-2.946 -7.567,-5.371c-3.892,-3.95 -8.397,-8.523 -18.236,-8.523Zm-19.849,23.819c-10.586,-0 -17.202,5.293 -19.849,15.878c3.97,-5.292 8.602,-7.277 13.895,-5.954c3.019,0.756 5.178,2.946 7.567,5.371c3.892,3.95 8.397,8.523 18.236,8.523c10.586,-0 17.202,-5.293 19.848,-15.879c-3.969,5.293 -8.601,7.278 -13.894,5.955c-3.02,-0.755 -5.178,-2.947 -7.567,-5.371c-3.892,-3.951 -8.397,-8.523 -18.236,-8.523Z" style="fill:#38bdf8;"/></g><path d="M724.736,282.49l-35.63,63.713c-0.736,1.316 -2.626,1.323 -3.373,0.014l-36.337,-63.721c-0.813,-1.426 0.407,-3.154 2.023,-2.865l35.669,6.375c0.227,0.041 0.46,0.04 0.688,-0.001l34.922,-6.365c1.611,-0.294 2.837,1.421 2.038,2.85Z" style="fill:url(#_Linear48);fill-rule:nonzero;"/><path d="M704.079,271.268l-26.368,5.167c-0.433,0.085 -0.754,0.452 -0.78,0.893l-1.622,27.394c-0.038,0.645 0.554,1.145 1.184,1l7.341,-1.694c0.687,-0.158 1.307,0.447 1.166,1.137l-2.181,10.68c-0.147,0.719 0.528,1.334 1.23,1.121l4.534,-1.378c0.703,-0.213 1.379,0.403 1.23,1.122l-3.466,16.777c-0.217,1.049 1.179,1.621 1.761,0.721l0.389,-0.6l21.486,-42.879c0.359,-0.718 -0.261,-1.536 -1.05,-1.384l-7.556,1.458c-0.71,0.137 -1.314,-0.524 -1.114,-1.219l4.932,-17.097c0.201,-0.696 -0.406,-1.358 -1.116,-1.219Z" style="fill:url(#_Linear49);fill-rule:nonzero;"/><clipPath id="_clip50"><rect id="Postgresql_elephant.svg" x="459.169" y="269.159" width="79.395" height="81.841"/></clipPath><g clip-path="url(#_clip50)"><g id="Layer_x0020_3"><path d="M518.559,328.737c0.521,-4.337 0.365,-4.973 3.595,-4.27l0.82,0.072c2.484,0.113 5.733,-0.4 7.642,-1.286c4.109,-1.907 6.545,-5.09 2.494,-4.254c-9.243,1.907 -9.878,-1.223 -9.878,-1.223c9.759,-14.48 13.839,-32.861 10.317,-37.361c-9.604,-12.273 -26.23,-6.469 -26.508,-6.318l-0.089,0.016c-1.826,-0.379 -3.87,-0.605 -6.165,-0.642c-4.183,-0.069 -7.356,1.096 -9.764,2.922c0,-0 -29.659,-12.219 -28.279,15.367c0.293,5.868 8.411,44.405 18.094,32.765c3.539,-4.256 6.959,-7.855 6.959,-7.855c1.698,1.128 3.731,1.704 5.864,1.497l0.165,-0.141c-0.052,0.529 -0.029,1.046 0.066,1.658c-2.494,2.787 -1.762,3.276 -6.748,4.302c-5.046,1.04 -2.082,2.892 -0.147,3.375c2.346,0.587 7.774,1.418 11.442,-3.716l-0.146,0.586c0.979,0.783 0.912,5.626 1.051,9.087c0.139,3.461 0.371,6.69 1.076,8.594c0.706,1.904 1.538,6.808 8.092,5.404c5.477,-1.174 9.665,-2.864 10.047,-18.579" style="fill-rule:nonzero;stroke:#000;stroke-width:6.87px;stroke-linecap:butt;stroke-linejoin:miter;stroke-miterlimit:4;"/><path d="M533.11,318.999c-9.243,1.906 -9.878,-1.223 -9.878,-1.223c9.759,-14.481 13.839,-32.863 10.318,-37.362c-9.605,-12.272 -26.231,-6.468 -26.508,-6.317l-0.09,0.016c-1.826,-0.379 -3.87,-0.605 -6.167,-0.643c-4.182,-0.068 -7.354,1.097 -9.762,2.922c0,0 -29.66,-12.218 -28.28,15.368c0.293,5.868 8.411,44.405 18.094,32.765c3.539,-4.256 6.959,-7.855 6.959,-7.855c1.698,1.128 3.731,1.704 5.863,1.497l0.166,-0.141c-0.052,0.529 -0.028,1.046 0.066,1.658c-2.495,2.787 -1.762,3.276 -6.748,4.302c-5.046,1.04 -2.082,2.892 -0.146,3.375c2.346,0.587 7.774,1.418 11.441,-3.716l-0.146,0.586c0.977,0.783 1.664,5.092 1.549,8.998c-0.115,3.907 -0.192,6.588 0.578,8.683c0.77,2.095 1.538,6.808 8.093,5.404c5.477,-1.174 8.316,-4.216 8.711,-9.29c0.28,-3.607 0.914,-3.074 0.954,-6.299l0.509,-1.527c0.586,-4.89 0.093,-6.467 3.467,-5.733l0.821,0.072c2.483,0.113 5.734,-0.4 7.642,-1.287c4.108,-1.906 6.545,-5.09 2.494,-4.253l0,-0Z" style="fill:#336791;fill-rule:nonzero;"/><path d="M498.835,321.802c-0.254,9.098 0.064,18.261 0.954,20.487c0.891,2.227 2.798,6.558 9.353,5.154c5.477,-1.174 7.47,-3.447 8.335,-8.462c0.637,-3.69 1.865,-13.939 2.022,-16.038" style="fill:none;fill-rule:nonzero;stroke:#fff;stroke-width:2.29px;stroke-miterlimit:4;"/><path d="M490.977,276.189c0,0 -29.68,-12.131 -28.3,15.455c0.294,5.869 8.412,44.407 18.095,32.767c3.538,-4.257 6.738,-7.596 6.738,-7.596" style="fill:none;fill-rule:nonzero;stroke:#fff;stroke-width:2.29px;stroke-miterlimit:4;"/><path d="M507.009,273.975c-1.027,0.322 16.51,-6.411 26.476,6.324c3.521,4.499 -0.559,22.881 -10.318,37.363" style="fill:none;fill-rule:nonzero;stroke:#fff;stroke-width:2.29px;stroke-miterlimit:4;"/><path d="M523.167,317.662c-0,-0 0.636,3.13 9.879,1.222c4.05,-0.836 1.613,2.347 -2.495,4.255c-3.37,1.564 -10.928,1.965 -11.052,-0.196c-0.317,-5.578 3.978,-3.884 3.668,-5.281c-0.28,-1.259 -2.201,-2.494 -3.472,-5.575c-1.109,-2.689 -15.214,-23.309 3.912,-20.247c0.701,-0.145 -4.988,-18.192 -22.887,-18.485c-17.895,-0.293 -17.308,22.007 -17.308,22.007" style="fill:none;fill-rule:nonzero;stroke:#fff;stroke-width:2.29px;stroke-linejoin:bevel;stroke-miterlimit:4;"/><path d="M493.826,319.569c-2.495,2.787 -1.761,3.276 -6.748,4.303c-5.046,1.04 -2.082,2.891 -0.147,3.375c2.346,0.587 7.774,1.418 11.442,-3.717c1.117,-1.564 -0.007,-4.059 -1.541,-4.695c-0.741,-0.307 -1.732,-0.692 -3.006,0.734Z" style="fill:none;fill-rule:nonzero;stroke:#fff;stroke-width:2.29px;stroke-miterlimit:4;"/><path d="M493.662,319.52c-0.251,-1.638 0.539,-3.588 1.385,-5.869c1.272,-3.423 4.207,-6.846 1.859,-17.703c-1.75,-8.09 -13.487,-1.683 -13.494,-0.586c-0.007,1.096 0.531,5.56 -0.196,10.758c-0.949,6.783 4.316,12.52 10.378,11.933" style="fill:none;fill-rule:nonzero;stroke:#fff;stroke-width:2.29px;stroke-miterlimit:4;"/><path d="M490.87,295.197c-0.053,0.375 0.686,1.375 1.649,1.508c0.962,0.134 1.785,-0.647 1.837,-1.021c0.052,-0.375 -0.686,-0.788 -1.649,-0.922c-0.963,-0.134 -1.786,0.061 -1.837,0.435l-0,0Z" style="fill:#fff;fill-rule:nonzero;stroke:#fff;stroke-width:0.76px;stroke-linecap:butt;stroke-linejoin:miter;stroke-miterlimit:4;"/><path d="M520.164,294.433c0.052,0.375 -0.685,1.375 -1.649,1.508c-0.963,0.135 -1.786,-0.647 -1.839,-1.021c-0.05,-0.375 0.688,-0.787 1.65,-0.922c0.963,-0.134 1.786,0.062 1.838,0.436l0,-0.001Z" style="fill:#fff;fill-rule:nonzero;stroke:#fff;stroke-width:0.38px;stroke-linecap:butt;stroke-linejoin:miter;stroke-miterlimit:4;"/><path d="M523.607,291.84c0.158,2.939 -0.633,4.941 -0.733,8.07c-0.148,4.547 2.168,9.752 -1.321,14.964" style="fill:none;fill-rule:nonzero;stroke:#fff;stroke-width:2.29px;stroke-miterlimit:4;"/></g></g><path d="M632.653,278.136c-0,-4.279 -3.474,-7.754 -7.754,-7.754l-63.887,0c-4.28,0 -7.754,3.475 -7.754,7.754l0,63.888c0,4.279 3.474,7.753 7.754,7.753l63.887,-0c4.28,-0 7.754,-3.474 7.754,-7.753l-0,-63.888Z" style="fill:#3178c6;"/><path d="M632.653,278.136c-0,-4.279 -3.474,-7.754 -7.754,-7.754l-63.887,0c-4.28,0 -7.754,3.475 -7.754,7.754l0,63.888c0,4.279 3.474,7.753 7.754,7.753l63.887,-0c4.28,-0 7.754,-3.474 7.754,-7.753l-0,-63.888Z" style="fill:#3178c6;"/><path d="M602.405,333.561l0,7.762c1.262,0.647 2.755,1.132 4.478,1.456c1.723,0.323 3.539,0.485 5.448,0.485c1.861,0 3.628,-0.178 5.303,-0.534c1.674,-0.355 3.143,-0.942 4.404,-1.758c1.262,-0.817 2.262,-1.884 2.998,-3.203c0.736,-1.318 1.104,-2.947 1.104,-4.888c-0,-1.407 -0.21,-2.64 -0.631,-3.699c-0.421,-1.059 -1.027,-2.001 -1.82,-2.826c-0.793,-0.825 -1.744,-1.565 -2.852,-2.22c-1.108,-0.655 -2.358,-1.274 -3.749,-1.856c-1.02,-0.42 -1.934,-0.828 -2.743,-1.225c-0.809,-0.396 -1.496,-0.8 -2.063,-1.213c-0.566,-0.412 -1.003,-0.849 -1.31,-1.31c-0.307,-0.461 -0.461,-0.982 -0.461,-1.564c-0,-0.534 0.137,-1.015 0.412,-1.444c0.275,-0.428 0.664,-0.796 1.165,-1.104c0.502,-0.307 1.117,-0.545 1.845,-0.715c0.728,-0.17 1.537,-0.255 2.427,-0.255c0.647,0 1.33,0.049 2.05,0.146c0.72,0.097 1.444,0.246 2.172,0.448c0.728,0.203 1.436,0.457 2.124,0.765c0.687,0.307 1.322,0.663 1.905,1.067l-0,-7.253c-1.181,-0.453 -2.471,-0.789 -3.871,-1.007c-1.399,-0.218 -3.005,-0.328 -4.817,-0.328c-1.845,0 -3.592,0.199 -5.242,0.595c-1.651,0.396 -3.103,1.015 -4.357,1.856c-1.253,0.841 -2.244,1.912 -2.972,3.214c-0.728,1.302 -1.093,2.858 -1.093,4.67c0,2.312 0.668,4.285 2.003,5.919c1.334,1.633 3.361,3.016 6.079,4.148c1.068,0.437 2.063,0.865 2.985,1.286c0.922,0.42 1.719,0.857 2.39,1.31c0.672,0.453 1.202,0.946 1.59,1.48c0.388,0.533 0.583,1.14 0.583,1.819c-0,0.501 -0.122,0.966 -0.365,1.395c-0.242,0.428 -0.61,0.8 -1.104,1.116c-0.493,0.315 -1.108,0.562 -1.844,0.739c-0.736,0.178 -1.598,0.267 -2.585,0.267c-1.682,0 -3.349,-0.295 -4.999,-0.885c-1.65,-0.59 -3.179,-1.476 -4.587,-2.656Zm-13.05,-19.127l9.958,0l0,-6.37l-27.757,-0l0,6.37l9.91,0l-0,28.365l7.889,-0l-0,-28.365Z" style="fill:#fff;"/></g></g><g transform="matrix(36,0,0,36,1033.74,210.002)"></g><text x="254.854px" y="210.002px" style="font-family:'CenturyGothic', 'Century Gothic', sans-serif;font-size:36px;fill:#d0d0d0;">Bachelor of Science in Computer Science</text><defs><linearGradient id="_Linear1" x1="0" y1="0" x2="1" y2="0" gradientUnits="userSpaceOnUse" gradientTransform="matrix(1283,-1.26218e-29,-1.26218e-29,1283,-2.99779,300)"><stop offset="0" style="stop-color:#00b9ff;stop-opacity:1"/><stop offset="0.08" style="stop-color:#00b8ff;stop-opacity:0.55"/><stop offset="0.18" style="stop-color:#00b8ff;stop-opacity:0.15"/><stop offset="0.5" style="stop-color:#00b8ff;stop-opacity:0"/><stop offset="0.82" style="stop-color:#00b8ff;stop-opacity:0.15"/><stop offset="0.92" style="stop-color:#00b8ff;stop-opacity:0.55"/><stop offset="1" style="stop-color:#00b8ff;stop-opacity:1"/></linearGradient><linearGradient id="_Linear2" x1="0" y1="0" x2="1" y2="0" gradientUnits="userSpaceOnUse" gradientTransform="matrix(1283,-1.26218e-29,-1.26218e-29,1283,-2.99779,300)"><stop offset="0" style="stop-color:#00b9ff;stop-opacity:1"/><stop offset="0.08" style="stop-color:#00b8ff;stop-opacity:0.55"/><stop offset="0.18" style="stop-color:#00b8ff;stop-opacity:0.15"/><stop offset="0.5" style="stop-color:#00b8ff;stop-opacity:0"/><stop offset="0.82" style="stop-color:#00b8ff;stop-opacity:0.15"/><stop offset="0.92" style="stop-color:#00b8ff;stop-opacity:0.55"/><stop offset="1" style="stop-color:#00b8ff;stop-opacity:1"/></linearGradient><linearGradient id="_Linear3" x1="0" y1="0" x2="1" y2="0" gradientUnits="userSpaceOnUse" gradientTransform="matrix(1283,-1.26218e-29,-1.26218e-29,1283,-2.99779,300)"><stop offset="0" style="stop-color:#00b9ff;stop-opacity:1"/><stop offset="0.08" style="stop-color:#00b8ff;stop-opacity:0.55"/><stop offset="0.18" style="stop-color:#00b8ff;stop-opacity:0.15"/><stop offset="0.5" style="stop-color:#00b8ff;stop-opacity:0"/><stop offset="0.82" style="stop-color:#00b8ff;stop-opacity:0.15"/><stop offset="0.92" style="stop-color:#00b8ff;stop-opacity:0.55"/><stop offset="1" style="stop-color:#00b8ff;stop-opacity:1"/></linearGradient><linearGradient id="_Linear4" x1="0" y1="0" x2="1" y2="0" gradientUnits="userSpaceOnUse" gradientTransform="matrix(1283,-1.26218e-29,-1.26218e-29,1283,-2.99779,300)"><stop offset="0" style="stop-color:#00b9ff;stop-opacity:1"/><stop offset="0.08" style="stop-color:#00b8ff;stop-opacity:0.55"/><stop offset="0.18" style="stop-color:#00b8ff;stop-opacity:0.15"/><stop offset="0.5" style="stop-color:#00b8ff;stop-opacity:0"/><stop offset="0.82" style="stop-color:#00b8ff;stop-opacity:0.15"/><stop offset="0.92" style="stop-color:#00b8ff;stop-opacity:0.55"/><stop offset="1" style="stop-color:#00b8ff;stop-opacity:1"/></linearGradient><linearGradient id="_Linear5" x1="0" y1="0" x2="1" y2="0" gradientUnits="userSpaceOnUse" gradientTransform="matrix(1283,-1.26218e-29,-1.26218e-29,1283,-2.99779,300)"><stop offset="0" style="stop-color:#00b9ff;stop-opacity:1"/><stop offset="0.08" style="stop-color:#00b8ff;stop-opacity:0.55"/><stop offset="0.18" style="stop-color:#00b8ff;stop-opacity:0.15"/><stop offset="0.5" style="stop-color:#00b8ff;stop-opacity:0"/><stop offset="0.82" style="stop-color:#00b8ff;stop-opacity:0.15"/><stop offset="0.92" style="stop-color:#00b8ff;stop-opacity:0.55"/><stop offset="1" style="stop-color:#00b8ff;stop-opacity:1"/></linearGradient><linearGradient id="_Linear6" x1="0" y1="0" x2="1" y2="0" gradientUnits="userSpaceOnUse" gradientTransform="matrix(1283,-1.26218e-29,-1.26218e-29,1283,-2.99779,300)"><stop offset="0" style="stop-color:#00b9ff;stop-opacity:1"/><stop offset="0.08" style="stop-color:#00b8ff;stop-opacity:0.55"/><stop offset="0.18" style="stop-color:#00b8ff;stop-opacity:0.15"/><stop offset="0.5" style="stop-color:#00b8ff;stop-opacity:0"/><stop offset="0.82" style="stop-color:#00b8ff;stop-opacity:0.15"/><stop offset="0.92" style="stop-color:#00b8ff;stop-opacity:0.55"/><stop offset="1" style="stop-color:#00b8ff;stop-opacity:1"/></linearGradient><linearGradient id="_Linear7" x1="0" y1="0" x2="1" y2="0" gradientUnits="userSpaceOnUse" gradientTransform="matrix(1283,-1.26218e-29,-1.26218e-29,1283,-2.99779,300)"><stop offset="0" style="stop-color:#00b9ff;stop-opacity:1"/><stop offset="0.08" style="stop-color:#00b8ff;stop-opacity:0.55"/><stop offset="0.18" style="stop-color:#00b8ff;stop-opacity:0.15"/><stop offset="0.5" style="stop-color:#00b8ff;stop-opacity:0"/><stop offset="0.82" style="stop-color:#00b8ff;stop-opacity:0.15"/><stop offset="0.92" style="stop-color:#00b8ff;stop-opacity:0.55"/><stop offset="1" style="stop-color:#00b8ff;stop-opacity:1"/></linearGradient><linearGradient id="_Linear8" x1="0" y1="0" x2="1" y2="0" gradientUnits="userSpaceOnUse" gradientTransform="matrix(1283,-1.26218e-29,-1.26218e-29,1283,-2.99779,300)"><stop offset="0" style="stop-color:#00b9ff;stop-opacity:1"/><stop offset="0.08" style="stop-color:#00b8ff;stop-opacity:0.55"/><stop offset="0.18" style="stop-color:#00b8ff;stop-opacity:0.15"/><stop offset="0.5" style="stop-color:#00b8ff;stop-opacity:0"/><stop offset="0.82" style="stop-color:#00b8ff;stop-opacity:0.15"/><stop offset="0.92" style="stop-color:#00b8ff;stop-opacity:0.55"/><stop offset="1" style="stop-color:#00b8ff;stop-opacity:1"/></linearGradient><linearGradient id="_Linear9" x1="0" y1="0" x2="1" y2="0" gradientUnits="userSpaceOnUse" gradientTransform="matrix(1283,-1.26218e-29,-1.26218e-29,1283,-2.99779,300)"><stop offset="0" style="stop-color:#00b9ff;stop-opacity:1"/><stop offset="0.08" style="stop-color:#00b8ff;stop-opacity:0.55"/><stop offset="0.18" style="stop-color:#00b8ff;stop-opacity:0.15"/><stop offset="0.5" style="stop-color:#00b8ff;stop-opacity:0"/><stop offset="0.82" style="stop-color:#00b8ff;stop-opacity:0.15"/><stop offset="0.92" style="stop-color:#00b8ff;stop-opacity:0.55"/><stop offset="1" style="stop-color:#00b8ff;stop-opacity:1"/></linearGradient><linearGradient id="_Linear10" x1="0" y1="0" x2="1" y2="0" gradientUnits="userSpaceOnUse" gradientTransform="matrix(1283,-1.26218e-29,-1.26218e-29,1283,-2.99779,300)"><stop offset="0" style="stop-color:#00b9ff;stop-opacity:1"/><stop offset="0.08" style="stop-color:#00b8ff;stop-opacity:0.55"/><stop offset="0.18" style="stop-color:#00b8ff;stop-opacity:0.15"/><stop offset="0.5" style="stop-color:#00b8ff;stop-opacity:0"/><stop offset="0.82" style="stop-color:#00b8ff;stop-opacity:0.15"/><stop offset="0.92" style="stop-color:#00b8ff;stop-opacity:0.55"/><stop offset="1" style="stop-color:#00b8ff;stop-opacity:1"/></linearGradient><linearGradient id="_Linear11" x1="0" y1="0" x2="1" y2="0" gradientUnits="userSpaceOnUse" gradientTransform="matrix(1283,-1.26218e-29,-1.26218e-29,1283,-2.99779,300)"><stop offset="0" style="stop-color:#00b9ff;stop-opacity:1"/><stop offset="0.08" style="stop-color:#00b8ff;stop-opacity:0.55"/><stop offset="0.18" style="stop-color:#00b8ff;stop-opacity:0.15"/><stop offset="0.5" style="stop-color:#00b8ff;stop-opacity:0"/><stop offset="0.82" style="stop-color:#00b8ff;stop-opacity:0.15"/><stop offset="0.92" style="stop-color:#00b8ff;stop-opacity:0.55"/><stop offset="1" style="stop-color:#00b8ff;stop-opacity:1"/></linearGradient><linearGradient id="_Linear12" x1="0" y1="0" x2="1" y2="0" gradientUnits="userSpaceOnUse" gradientTransform="matrix(1283,-1.26218e-29,-1.26218e-29,1283,-2.99779,300)"><stop offset="0" style="stop-color:#00b9ff;stop-opacity:1"/><stop offset="0.08" style="stop-color:#00b8ff;stop-opacity:0.55"/><stop offset="0.18" style="stop-color:#00b8ff;stop-opacity:0.15"/><stop offset="0.5" style="stop-color:#00b8ff;stop-opacity:0"/><stop offset="0.82" style="stop-color:#00b8ff;stop-opacity:0.15"/><stop offset="0.92" style="stop-color:#00b8ff;stop-opacity:0.55"/><stop offset="1" style="stop-color:#00b8ff;stop-opacity:1"/></linearGradient><linearGradient id="_Linear13" x1="0" y1="0" x2="1" y2="0" gradientUnits="userSpaceOnUse" gradientTransform="matrix(1283,-1.26218e-29,-1.26218e-29,1283,-2.99779,300)"><stop offset="0" style="stop-color:#00b9ff;stop-opacity:1"/><stop offset="0.08" style="stop-color:#00b8ff;stop-opacity:0.55"/><stop offset="0.18" style="stop-color:#00b8ff;stop-opacity:0.15"/><stop offset="0.5" style="stop-color:#00b8ff;stop-opacity:0"/><stop offset="0.82" style="stop-color:#00b8ff;stop-opacity:0.15"/><stop offset="0.92" style="stop-color:#00b8ff;stop-opacity:0.55"/><stop offset="1" style="stop-color:#00b8ff;stop-opacity:1"/></linearGradient><linearGradient id="_Linear14" x1="0" y1="0" x2="1" y2="0" gradientUnits="userSpaceOnUse" gradientTransform="matrix(1283,-1.26218e-29,-1.26218e-29,1283,-2.99779,300)"><stop offset="0" style="stop-color:#00b9ff;stop-opacity:1"/><stop offset="0.08" style="stop-color:#00b8ff;stop-opacity:0.55"/><stop offset="0.18" style="stop-color:#00b8ff;stop-opacity:0.15"/><stop offset="0.5" style="stop-color:#00b8ff;stop-opacity:0"/><stop offset="0.82" style="stop-color:#00b8ff;stop-opacity:0.15"/><stop offset="0.92" style="stop-color:#00b8ff;stop-opacity:0.55"/><stop offset="1" style="stop-color:#00b8ff;stop-opacity:1"/></linearGradient><linearGradient id="_Linear15" x1="0" y1="0" x2="1" y2="0" gradientUnits="userSpaceOnUse" gradientTransform="matrix(1283,-1.26218e-29,-1.26218e-29,1283,-2.99779,300)"><stop offset="0" style="stop-color:#00b9ff;stop-opacity:1"/><stop offset="0.08" style="stop-color:#00b8ff;stop-opacity:0.55"/><stop offset="0.18" style="stop-color:#00b8ff;stop-opacity:0.15"/><stop offset="0.5" style="stop-color:#00b8ff;stop-opacity:0"/><stop offset="0.82" style="stop-color:#00b8ff;stop-opacity:0.15"/><stop offset="0.92" style="stop-color:#00b8ff;stop-opacity:0.55"/><stop offset="1" style="stop-color:#00b8ff;stop-opacity:1"/></linearGradient><linearGradient id="_Linear16" x1="0" y1="0" x2="1" y2="0" gradientUnits="userSpaceOnUse" gradientTransform="matrix(1283,-1.26218e-29,-1.26218e-29,1283,-2.99779,300)"><stop offset="0" style="stop-color:#00b9ff;stop-opacity:1"/><stop offset="0.08" style="stop-color:#00b8ff;stop-opacity:0.55"/><stop offset="0.18" style="stop-color:#00b8ff;stop-opacity:0.15"/><stop offset="0.5" style="stop-color:#00b8ff;stop-opacity:0"/><stop offset="0.82" style="stop-color:#00b8ff;stop-opacity:0.15"/><stop offset="0.92" style="stop-color:#00b8ff;stop-opacity:0.55"/><stop offset="1" style="stop-color:#00b8ff;stop-opacity:1"/></linearGradient><linearGradient id="_Linear17" x1="0" y1="0" x2="1" y2="0" gradientUnits="userSpaceOnUse" gradientTransform="matrix(1283,-1.26218e-29,-1.26218e-29,1283,-2.99779,300)"><stop offset="0" style="stop-color:#00b9ff;stop-opacity:1"/><stop offset="0.08" style="stop-color:#00b8ff;stop-opacity:0.55"/><stop offset="0.18" style="stop-color:#00b8ff;stop-opacity:0.15"/><stop offset="0.5" style="stop-color:#00b8ff;stop-opacity:0"/><stop offset="0.82" style="stop-color:#00b8ff;stop-opacity:0.15"/><stop offset="0.92" style="stop-color:#00b8ff;stop-opacity:0.55"/><stop offset="1" style="stop-color:#00b8ff;stop-opacity:1"/></linearGradient><linearGradient id="_Linear18" x1="0" y1="0" x2="1" y2="0" gradientUnits="userSpaceOnUse" gradientTransform="matrix(1283,-1.26218e-29,-1.26218e-29,1283,-2.99779,300)"><stop offset="0" style="stop-color:#00b9ff;stop-opacity:1"/><stop offset="0.08" style="stop-color:#00b8ff;stop-opacity:0.55"/><stop offset="0.18" style="stop-color:#00b8ff;stop-opacity:0.15"/><stop offset="0.5" style="stop-color:#00b8ff;stop-opacity:0"/><stop offset="0.82" style="stop-color:#00b8ff;stop-opacity:0.15"/><stop offset="0.92" style="stop-color:#00b8ff;stop-opacity:0.55"/><stop offset="1" style="stop-color:#00b8ff;stop-opacity:1"/></linearGradient><linearGradient id="_Linear19" x1="0" y1="0" x2="1" y2="0" gradientUnits="userSpaceOnUse" gradientTransform="matrix(1283,-1.26218e-29,-1.26218e-29,1283,-2.99779,300)"><stop offset="0" style="stop-color:#00b9ff;stop-opacity:1"/><stop offset="0.08" style="stop-color:#00b8ff;stop-opacity:0.55"/><stop offset="0.18" style="stop-color:#00b8ff;stop-opacity:0.15"/><stop offset="0.5" style="stop-color:#00b8ff;stop-opacity:0"/><stop offset="0.82" style="stop-color:#00b8ff;stop-opacity:0.15"/><stop offset="0.92" style="stop-color:#00b8ff;stop-opacity:0.55"/><stop offset="1" style="stop-color:#00b8ff;stop-opacity:1"/></linearGradient><linearGradient id="_Linear20" x1="0" y1="0" x2="1" y2="0" gradientUnits="userSpaceOnUse" gradientTransform="matrix(1283,-1.26218e-29,-1.26218e-29,1283,-2.99779,300)"><stop offset="0" style="stop-color:#00b9ff;stop-opacity:1"/><stop offset="0.08" style="stop-color:#00b8ff;stop-opacity:0.55"/><stop offset="0.18" style="stop-color:#00b8ff;stop-opacity:0.15"/><stop offset="0.5" style="stop-color:#00b8ff;stop-opacity:0"/><stop offset="0.82" style="stop-color:#00b8ff;stop-opacity:0.15"/><stop offset="0.92" style="stop-color:#00b8ff;stop-opacity:0.55"/><stop offset="1" style="stop-color:#00b8ff;stop-opacity:1"/></linearGradient><linearGradient id="_Linear21" x1="0" y1="0" x2="1" y2="0" gradientUnits="userSpaceOnUse" gradientTransform="matrix(1283,-1.26218e-29,-1.26218e-29,1283,-2.99779,300)"><stop offset="0" style="stop-color:#00b9ff;stop-opacity:1"/><stop offset="0.08" style="stop-color:#00b8ff;stop-opacity:0.55"/><stop offset="0.18" style="stop-color:#00b8ff;stop-opacity:0.15"/><stop offset="0.5" style="stop-color:#00b8ff;stop-opacity:0"/><stop offset="0.82" style="stop-color:#00b8ff;stop-opacity:0.15"/><stop offset="0.92" style="stop-color:#00b8ff;stop-opacity:0.55"/><stop offset="1" style="stop-color:#00b8ff;stop-opacity:1"/></linearGradient><linearGradient id="_Linear22" x1="0" y1="0" x2="1" y2="0" gradientUnits="userSpaceOnUse" gradientTransform="matrix(1283,-1.26218e-29,-1.26218e-29,1283,-2.99779,300)"><stop offset="0" style="stop-color:#00b9ff;stop-opacity:1"/><stop offset="0.08" style="stop-color:#00b8ff;stop-opacity:0.55"/><stop offset="0.18" style="stop-color:#00b8ff;stop-opacity:0.15"/><stop offset="0.5" style="stop-color:#00b8ff;stop-opacity:0"/><stop offset="0.82" style="stop-color:#00b8ff;stop-opacity:0.15"/><stop offset="0.92" style="stop-color:#00b8ff;stop-opacity:0.55"/><stop offset="1" style="stop-color:#00b8ff;stop-opacity:1"/></linearGradient><linearGradient id="_Linear23" x1="0" y1="0" x2="1" y2="0" gradientUnits="userSpaceOnUse" gradientTransform="matrix(1283,-1.26218e-29,-1.26218e-29,1283,-2.99779,300)"><stop offset="0" style="stop-color:#00b9ff;stop-opacity:1"/><stop offset="0.08" style="stop-color:#00b8ff;stop-opacity:0.55"/><stop offset="0.18" style="stop-color:#00b8ff;stop-opacity:0.15"/><stop offset="0.5" style="stop-color:#00b8ff;stop-opacity:0"/><stop offset="0.82" style="stop-color:#00b8ff;stop-opacity:0.15"/><stop offset="0.92" style="stop-color:#00b8ff;stop-opacity:0.55"/><stop offset="1" style="stop-color:#00b8ff;stop-opacity:1"/></linearGradient><linearGradient id="_Linear24" x1="0" y1="0" x2="1" y2="0" gradientUnits="userSpaceOnUse" gradientTransform="matrix(1283,-1.26218e-29,-1.26218e-29,1283,-2.99779,300)"><stop offset="0" style="stop-color:#00b9ff;stop-opacity:1"/><stop offset="0.08" style="stop-color:#00b8ff;stop-opacity:0.55"/><stop offset="0.18" style="stop-color:#00b8ff;stop-opacity:0.15"/><stop offset="0.5" style="stop-color:#00b8ff;stop-opacity:0"/><stop offset="0.82" style="stop-color:#00b8ff;stop-opacity:0.15"/><stop offset="0.92" style="stop-color:#00b8ff;stop-opacity:0.55"/><stop offset="1" style="stop-color:#00b8ff;stop-opacity:1"/></linearGradient><linearGradient id="_Linear25" x1="0" y1="0" x2="1" y2="0" gradientUnits="userSpaceOnUse" gradientTransform="matrix(1283,-1.26218e-29,-1.26218e-29,1283,-2.99779,300)"><stop offset="0" style="stop-color:#00b9ff;stop-opacity:1"/><stop offset="0.08" style="stop-color:#00b8ff;stop-opacity:0.55"/><stop offset="0.18" style="stop-color:#00b8ff;stop-opacity:0.15"/><stop offset="0.5" style="stop-color:#00b8ff;stop-opacity:0"/><stop offset="0.82" style="stop-color:#00b8ff;stop-opacity:0.15"/><stop offset="0.92" style="stop-color:#00b8ff;stop-opacity:0.55"/><stop offset="1" style="stop-color:#00b8ff;stop-opacity:1"/></linearGradient><linearGradient id="_Linear26" x1="0" y1="0" x2="1" y2="0" gradientUnits="userSpaceOnUse" gradientTransform="matrix(1283,-1.26218e-29,-1.26218e-29,1283,-2.99779,300)"><stop offset="0" style="stop-color:#00b9ff;stop-opacity:1"/><stop offset="0.08" style="stop-color:#00b8ff;stop-opacity:0.55"/><stop offset="0.18" style="stop-color:#00b8ff;stop-opacity:0.15"/><stop offset="0.5" style="stop-color:#00b8ff;stop-opacity:0"/><stop offset="0.82" style="stop-color:#00b8ff;stop-opacity:0.15"/><stop offset="0.92" style="stop-color:#00b8ff;stop-opacity:0.55"/><stop offset="1" style="stop-color:#00b8ff;stop-opacity:1"/></linearGradient><linearGradient id="_Linear27" x1="0" y1="0" x2="1" y2="0" gradientUnits="userSpaceOnUse" gradientTransform="matrix(1283,-1.26218e-29,-1.26218e-29,1283,-2.99779,300)"><stop offset="0" style="stop-color:#00b9ff;stop-opacity:1"/><stop offset="0.08" style="stop-color:#00b8ff;stop-opacity:0.55"/><stop offset="0.18" style="stop-color:#00b8ff;stop-opacity:0.15"/><stop offset="0.5" style="stop-color:#00b8ff;stop-opacity:0"/><stop offset="0.82" style="stop-color:#00b8ff;stop-opacity:0.15"/><stop offset="0.92" style="stop-color:#00b8ff;stop-opacity:0.55"/><stop offset="1" style="stop-color:#00b8ff;stop-opacity:1"/></linearGradient><linearGradient id="_Linear28" x1="0" y1="0" x2="1" y2="0" gradientUnits="userSpaceOnUse" gradientTransform="matrix(1283,-1.26218e-29,-1.26218e-29,1283,-2.99779,300)"><stop offset="0" style="stop-color:#00b9ff;stop-opacity:1"/><stop offset="0.08" style="stop-color:#00b8ff;stop-opacity:0.55"/><stop offset="0.18" style="stop-color:#00b8ff;stop-opacity:0.15"/><stop offset="0.5" style="stop-color:#00b8ff;stop-opacity:0"/><stop offset="0.82" style="stop-color:#00b8ff;stop-opacity:0.15"/><stop offset="0.92" style="stop-color:#00b8ff;stop-opacity:0.55"/><stop offset="1" style="stop-color:#00b8ff;stop-opacity:1"/></linearGradient><linearGradient id="_Linear29" x1="0" y1="0" x2="1" y2="0" gradientUnits="userSpaceOnUse" gradientTransform="matrix(1283,-1.26218e-29,-1.26218e-29,1283,-2.99779,300)"><stop offset="0" style="stop-color:#00b9ff;stop-opacity:1"/><stop offset="0.08" style="stop-color:#00b8ff;stop-opacity:0.55"/><stop offset="0.18" style="stop-color:#00b8ff;stop-opacity:0.15"/><stop offset="0.5" style="stop-color:#00b8ff;stop-opacity:0"/><stop offset="0.82" style="stop-color:#00b8ff;stop-opacity:0.15"/><stop offset="0.92" style="stop-color:#00b8ff;stop-opacity:0.55"/><stop offset="1" style="stop-color:#00b8ff;stop-opacity:1"/></linearGradient><linearGradient id="_Linear30" x1="0" y1="0" x2="1" y2="0" gradientUnits="userSpaceOnUse" gradientTransform="matrix(1283,-1.26218e-29,-1.26218e-29,1283,-2.99779,300)"><stop offset="0" style="stop-color:#00b9ff;stop-opacity:1"/><stop offset="0.08" style="stop-color:#00b8ff;stop-opacity:0.55"/><stop offset="0.18" style="stop-color:#00b8ff;stop-opacity:0.15"/><stop offset="0.5" style="stop-color:#00b8ff;stop-opacity:0"/><stop offset="0.82" style="stop-color:#00b8ff;stop-opacity:0.15"/><stop offset="0.92" style="stop-color:#00b8ff;stop-opacity:0.55"/><stop offset="1" style="stop-color:#00b8ff;stop-opacity:1"/></linearGradient><linearGradient id="_Linear31" x1="0" y1="0" x2="1" y2="0" gradientUnits="userSpaceOnUse" gradientTransform="matrix(1283,-1.26218e-29,-1.26218e-29,1283,-2.99779,300)"><stop offset="0" style="stop-color:#00b9ff;stop-opacity:1"/><stop offset="0.08" style="stop-color:#00b8ff;stop-opacity:0.55"/><stop offset="0.18" style="stop-color:#00b8ff;stop-opacity:0.15"/><stop offset="0.5" style="stop-color:#00b8ff;stop-opacity:0"/><stop offset="0.82" style="stop-color:#00b8ff;stop-opacity:0.15"/><stop offset="0.92" style="stop-color:#00b8ff;stop-opacity:0.55"/><stop offset="1" style="stop-color:#00b8ff;stop-opacity:1"/></linearGradient><linearGradient id="_Linear32" x1="0" y1="0" x2="1" y2="0" gradientUnits="userSpaceOnUse" gradientTransform="matrix(1283,-1.26218e-29,-1.26218e-29,1283,-2.99779,300)"><stop offset="0" style="stop-color:#00b9ff;stop-opacity:1"/><stop offset="0.08" style="stop-color:#00b8ff;stop-opacity:0.55"/><stop offset="0.18" style="stop-color:#00b8ff;stop-opacity:0.15"/><stop offset="0.5" style="stop-color:#00b8ff;stop-opacity:0"/><stop offset="0.82" style="stop-color:#00b8ff;stop-opacity:0.15"/><stop offset="0.92" style="stop-color:#00b8ff;stop-opacity:0.55"/><stop offset="1" style="stop-color:#00b8ff;stop-opacity:1"/></linearGradient><linearGradient id="_Linear33" x1="0" y1="0" x2="1" y2="0" gradientUnits="userSpaceOnUse" gradientTransform="matrix(1283,-1.26218e-29,-1.26218e-29,1283,-2.99779,300)"><stop offset="0" style="stop-color:#00b9ff;stop-opacity:1"/><stop offset="0.08" style="stop-color:#00b8ff;stop-opacity:0.55"/><stop offset="0.18" style="stop-color:#00b8ff;stop-opacity:0.15"/><stop offset="0.5" style="stop-color:#00b8ff;stop-opacity:0"/><stop offset="0.82" style="stop-color:#00b8ff;stop-opacity:0.15"/><stop offset="0.92" style="stop-color:#00b8ff;stop-opacity:0.55"/><stop offset="1" style="stop-color:#00b8ff;stop-opacity:1"/></linearGradient><linearGradient id="_Linear34" x1="0" y1="0" x2="1" y2="0" gradientUnits="userSpaceOnUse" gradientTransform="matrix(1283,-1.26218e-29,-1.26218e-29,1283,-2.99779,300)"><stop offset="0" style="stop-color:#00b9ff;stop-opacity:1"/><stop offset="0.08" style="stop-color:#00b8ff;stop-opacity:0.55"/><stop offset="0.18" style="stop-color:#00b8ff;stop-opacity:0.15"/><stop offset="0.5" style="stop-color:#00b8ff;stop-opacity:0"/><stop offset="0.82" style="stop-color:#00b8ff;stop-opacity:0.15"/><stop offset="0.92" style="stop-color:#00b8ff;stop-opacity:0.55"/><stop offset="1" style="stop-color:#00b8ff;stop-opacity:1"/></linearGradient><linearGradient id="_Linear35" x1="0" y1="0" x2="1" y2="0" gradientUnits="userSpaceOnUse" gradientTransform="matrix(1283,-1.26218e-29,-1.26218e-29,1283,-2.99779,300)"><stop offset="0" style="stop-color:#00b9ff;stop-opacity:1"/><stop offset="0.08" style="stop-color:#00b8ff;stop-opacity:0.55"/><stop offset="0.18" style="stop-color:#00b8ff;stop-opacity:0.15"/><stop offset="0.5" style="stop-color:#00b8ff;stop-opacity:0"/><stop offset="0.82" style="stop-color:#00b8ff;stop-opacity:0.15"/><stop offset="0.92" style="stop-color:#00b8ff;stop-opacity:0.55"/><stop offset="1" style="stop-color:#00b8ff;stop-opacity:1"/></linearGradient><linearGradient id="_Linear36" x1="0" y1="0" x2="1" y2="0" gradientUnits="userSpaceOnUse" gradientTransform="matrix(1283,-1.26218e-29,-1.26218e-29,1283,-2.99779,300)"><stop offset="0" style="stop-color:#00b9ff;stop-opacity:1"/><stop offset="0.08" style="stop-color:#00b8ff;stop-opacity:0.55"/><stop offset="0.18" style="stop-color:#00b8ff;stop-opacity:0.15"/><stop offset="0.5" style="stop-color:#00b8ff;stop-opacity:0"/><stop offset="0.82" style="stop-color:#00b8ff;stop-opacity:0.15"/><stop offset="0.92" style="stop-color:#00b8ff;stop-opacity:0.55"/><stop offset="1" style="stop-color:#00b8ff;stop-opacity:1"/></linearGradient><linearGradient id="_Linear37" x1="0" y1="0" x2="1" y2="0" gradientUnits="userSpaceOnUse" gradientTransform="matrix(1283,-1.26218e-29,-1.26218e-29,1283,-2.99779,300)"><stop offset="0" style="stop-color:#00b9ff;stop-opacity:1"/><stop offset="0.08" style="stop-color:#00b8ff;stop-opacity:0.55"/><stop offset="0.18" style="stop-color:#00b8ff;stop-opacity:0.15"/><stop offset="0.5" style="stop-color:#00b8ff;stop-opacity:0"/><stop offset="0.82" style="stop-color:#00b8ff;stop-opacity:0.15"/><stop offset="0.92" style="stop-color:#00b8ff;stop-opacity:0.55"/><stop offset="1" style="stop-color:#00b8ff;stop-opacity:1"/></linearGradient><linearGradient id="_Linear38" x1="0" y1="0" x2="1" y2="0" gradientUnits="userSpaceOnUse" gradientTransform="matrix(1283,-1.26218e-29,-1.26218e-29,1283,-2.99779,300)"><stop offset="0" style="stop-color:#00b9ff;stop-opacity:1"/><stop offset="0.08" style="stop-color:#00b8ff;stop-opacity:0.55"/><stop offset="0.18" style="stop-color:#00b8ff;stop-opacity:0.15"/><stop offset="0.5" style="stop-color:#00b8ff;stop-opacity:0"/><stop offset="0.82" style="stop-color:#00b8ff;stop-opacity:0.15"/><stop offset="0.92" style="stop-color:#00b8ff;stop-opacity:0.55"/><stop offset="1" style="stop-color:#00b8ff;stop-opacity:1"/></linearGradient><linearGradient id="_Linear39" x1="0" y1="0" x2="1" y2="0" gradientUnits="userSpaceOnUse" gradientTransform="matrix(1283,-1.26218e-29,-1.26218e-29,1283,-2.99779,300)"><stop offset="0" style="stop-color:#00b9ff;stop-opacity:1"/><stop offset="0.08" style="stop-color:#00b8ff;stop-opacity:0.55"/><stop offset="0.18" style="stop-color:#00b8ff;stop-opacity:0.15"/><stop offset="0.5" style="stop-color:#00b8ff;stop-opacity:0"/><stop offset="0.82" style="stop-color:#00b8ff;stop-opacity:0.15"/><stop offset="0.92" style="stop-color:#00b8ff;stop-opacity:0.55"/><stop offset="1" style="stop-color:#00b8ff;stop-opacity:1"/></linearGradient><linearGradient id="_Linear41" x1="0" y1="0" x2="1" y2="0" gradientUnits="userSpaceOnUse" gradientTransform="matrix(4.25382e-15,69.4702,-69.4702,4.25382e-15,330.016,275.345)"><stop offset="0" style="stop-color:#32b5f1;stop-opacity:1"/><stop offset="1" style="stop-color:#2b9fed;stop-opacity:1"/></linearGradient><linearGradient id="_Linear42" x1="0" y1="0" x2="1" y2="0" gradientUnits="userSpaceOnUse" gradientTransform="matrix(-49.5722,41.6105,-41.6105,-49.5722,323.098,284.113)"><stop offset="0" style="stop-color:#0f6fb3;stop-opacity:1"/><stop offset="0.27" style="stop-color:#1279b7;stop-opacity:1"/><stop offset="0.42" style="stop-color:#1176b5;stop-opacity:1"/><stop offset="0.62" style="stop-color:#0e69ac;stop-opacity:1"/><stop offset="0.86" style="stop-color:#0f70af;stop-opacity:1"/><stop offset="1" style="stop-color:#0f6dad;stop-opacity:1"/></linearGradient><linearGradient id="_Linear43" x1="0" y1="0" x2="1" y2="0" gradientUnits="userSpaceOnUse" gradientTransform="matrix(49.4327,40.9301,-40.9301,49.4327,273.857,295.153)"><stop offset="0" style="stop-color:#1791d2;stop-opacity:1"/><stop offset="1" style="stop-color:#1173c5;stop-opacity:1"/></linearGradient><linearGradient id="_Linear44" x1="0" y1="0" x2="1" y2="0" gradientUnits="userSpaceOnUse" gradientTransform="matrix(59.5459,28.936,-28.936,59.5459,848.678,274.376)"><stop offset="0" style="stop-color:#76b3e1;stop-opacity:0.3"/><stop offset="0.1" style="stop-color:#76b3e1;stop-opacity:0.3"/><stop offset="0.3" style="stop-color:#dcf2fd;stop-opacity:0.3"/><stop offset="1" style="stop-color:#76b3e1;stop-opacity:0.3"/></linearGradient><linearGradient id="_Linear45" x1="0" y1="0" x2="1" y2="0" gradientUnits="userSpaceOnUse" gradientTransform="matrix(-10.4265,34.7232,-34.7232,-10.4265,881.345,288.533)"><stop offset="0" style="stop-color:#76b3e1;stop-opacity:0.3"/><stop offset="0.5" style="stop-color:#4377bb;stop-opacity:0.3"/><stop offset="1" style="stop-color:#1f3b77;stop-opacity:0.3"/></linearGradient><linearGradient id="_Linear46" x1="0" y1="0" x2="1" y2="0" gradientUnits="userSpaceOnUse" gradientTransform="matrix(60.2155,40.9408,-40.9408,60.2155,844.326,303.647)"><stop offset="0" style="stop-color:#315aa9;stop-opacity:1"/><stop offset="0.5" style="stop-color:#518ac8;stop-opacity:1"/><stop offset="1" style="stop-color:#315aa9;stop-opacity:1"/></linearGradient><linearGradient id="_Linear47" x1="0" y1="0" x2="1" y2="0" gradientUnits="userSpaceOnUse" gradientTransform="matrix(-24.2966,89.1036,-89.1036,-24.2966,871.492,308.573)"><stop offset="0" style="stop-color:#4377bb;stop-opacity:1"/><stop offset="0.5" style="stop-color:#1a336b;stop-opacity:1"/><stop offset="1" style="stop-color:#1a336b;stop-opacity:1"/></linearGradient><linearGradient id="_Linear48" x1="0" y1="0" x2="1" y2="0" gradientUnits="userSpaceOnUse" gradientTransform="matrix(44.3447,60.2237,-60.2237,44.3447,648.509,277.354)"><stop offset="0" style="stop-color:#41d1ff;stop-opacity:1"/><stop offset="1" style="stop-color:#bd34fe;stop-opacity:1"/></linearGradient><linearGradient id="_Linear49" x1="0" y1="0" x2="1" y2="0" gradientUnits="userSpaceOnUse" gradientTransform="matrix(8.02175,55.0283,-55.0283,8.02175,685.041,272.671)"><stop offset="0" style="stop-color:#ffea83;stop-opacity:1"/><stop offset="0.08" style="stop-color:#ffdd35;stop-opacity:1"/><stop offset="1" style="stop-color:#ffa800;stop-opacity:1"/></linearGradient></defs></svg>
